<?xml version="1.0" encoding="UTF-8"?>
<svg width="510px" height="114px" viewBox="0 0 510 114" version="1.1" xmlns="http://www.w3.org/2000/svg" xmlns:xlink="http://www.w3.org/1999/xlink">
    <!-- Generator: Sketch 52.4 (67378) - http://www.bohemiancoding.com/sketch -->
    <title>by_Songkick_black</title>
    <desc>Created with Sketch.</desc>
    <defs>
        <path d="M267.065,70.675 C268.377,70.675 268.375,70.681 270.033,70.681 L270.033,85.408 L265.47,85.419 C255.997,85.419 250.29,83.693 246.009,77.164 C243.354,72.931 234.612,59.199 234.612,59.199 L234.612,85.348 L219,85.348 L219,2.968 L234.612,2.968 L234.612,45.875 L251.69,22.091 L270.372,22.091 L248.861,52.064 C248.861,52.064 253.807,59.967 256.758,64.664 C259.786,69.39 262.681,70.675 267.065,70.675 Z M410.065,68.675 C411.377,68.675 411.375,68.681 413.033,68.681 L413.033,83.408 L408.47,83.419 C398.997,83.419 393.29,81.693 389.01,75.164 C386.354,70.931 377.61,57.199 377.61,57.199 L377.61,83.348 L362,83.348 L362,0.968 L377.61,0.968 L377.61,43.875 L394.69,20.091 L413.372,20.091 L391.861,50.064 C391.861,50.064 396.807,57.967 399.759,62.664 C402.787,67.39 405.681,68.675 410.065,68.675 Z M24.082,85.554 C14.36,85.554 6.42,83.77 0,77.171 L9.99,67.18 C13.29,70.48 19.087,71.64 24.17,71.64 C30.325,71.64 33.269,69.59 33.269,65.933 C33.269,64.415 32.915,63.163 32.021,62.178 C31.219,61.376 29.879,60.748 27.828,60.482 L20.159,59.414 C14.539,58.61 10.258,56.737 7.403,53.793 C4.458,50.762 3.033,46.48 3.033,41.041 C3.033,29.445 11.775,20.968 26.222,20.968 C35.321,20.968 42.19,23.11 47.63,28.551 L37.819,38.362 C33.803,34.348 28.541,34.616 25.776,34.616 C20.336,34.616 18.107,37.74 18.107,40.503 C18.107,41.307 18.374,42.465 19.356,43.447 C20.159,44.251 21.494,45.053 23.727,45.32 L31.395,46.392 C37.104,47.192 41.207,48.976 43.884,51.654 C47.273,54.953 48.609,59.678 48.609,65.577 C48.609,78.511 37.462,85.554 24.082,85.554 Z M95.924,78.419 C91.285,83.058 85.932,85.554 78.173,85.554 C70.412,85.554 65.061,83.058 60.424,78.419 C53.734,71.73 54.001,62.805 54.001,53.257 C54.001,43.715 53.734,34.794 60.424,28.105 C65.061,23.466 70.412,20.968 78.173,20.968 C85.932,20.968 91.285,23.466 95.924,28.105 C102.612,34.794 102.345,43.715 102.345,53.257 C102.345,62.805 102.612,71.73 95.924,78.419 Z M77.562,34.968 C74.708,34.968 72.478,36.218 71.32,37.734 C69.894,39.606 69,41.747 69,53.342 C69,64.949 69.894,66.999 71.32,68.872 C72.478,70.388 74.708,71.724 77.562,71.724 C80.417,71.724 82.646,70.388 83.806,68.872 C85.232,66.999 86.124,64.949 86.124,53.342 C86.124,41.747 85.232,39.606 83.806,37.734 C82.646,36.218 80.417,34.968 77.562,34.968 Z M332.079,86.556 C324.676,86.556 319.057,84.058 314.418,79.419 C307.735,72.732 308.001,63.804 308.001,54.259 C308.001,44.711 307.735,35.794 314.418,29.107 C319.057,24.468 324.676,21.968 332.079,21.968 C344.123,21.968 353.843,28.659 356.162,42.663 L340.287,42.663 C339.306,39.094 337.344,35.884 332.169,35.884 C329.314,35.884 327.176,37.044 326.014,38.56 C324.587,40.433 323.607,42.663 323.607,54.259 C323.607,65.861 324.587,68.092 326.014,69.964 C327.176,71.482 329.314,72.642 332.169,72.642 C337.344,72.642 339.306,69.43 340.287,65.861 L356.162,65.861 C353.843,79.863 344.123,86.556 332.079,86.556 Z M195.343,89.7 L195.343,83.639 C192.545,84.982 189.954,85.555 187.081,85.555 C179.678,85.555 174.059,83.058 169.424,78.419 C162.732,71.732 163.001,62.804 163.001,53.259 C163.001,43.711 162.732,34.794 169.424,28.107 C174.059,23.468 179.678,20.968 187.081,20.968 C192.706,20.968 198.348,22.645 202.742,25.982 C207.668,29.726 211.034,35.527 211.034,42.84 L211.089,89.728 C211.089,105.31 202.617,113.426 187.081,113.526 L180.159,113.501 L180.159,99.576 L185.834,99.539 C189.568,99.539 195.343,98.06 195.343,89.7 Z M187.563,71.726 C192.648,71.726 194.626,68.621 195.625,65.129 L195.625,41.567 C194.626,38.069 192.648,34.968 187.563,34.968 C184.708,34.968 182.568,36.128 181.408,37.644 C179.98,39.518 179,41.747 179,53.343 C179,64.945 179.98,67.177 181.408,69.048 C182.568,70.566 184.708,71.726 187.563,71.726 Z M156.35,49.051 L156.311,85.012 L140.71,84.988 L140.739,49.086 C140.739,40.719 139.846,39.739 138.419,37.867 C137.261,36.351 135.032,34.884 132.176,34.884 C129.321,34.884 127.093,36.351 125.933,37.867 C124.505,39.739 123.614,40.93 123.614,49.047 L123.598,85.014 L108,85.018 L108.004,49.047 C108.004,42.978 107.738,34.794 114.427,28.105 C119.064,23.466 124.417,20.968 132.176,20.968 C139.939,20.968 145.29,23.466 149.926,28.105 C156.609,34.785 156.35,42.57 156.35,49.051 Z M291.552,14.324 L276,14.298 L276.002,2.968 L291.552,2.97 L291.552,14.324 Z M275,21.968 L290.872,21.978 L290.874,60.769 C290.9,67.298 295.309,70.539 300.492,70.539 L302.326,70.543 L302.326,85.3 L299.028,85.336 C283.186,85.236 275.02,76.558 275.02,61.293 L275,21.968 Z" id="path-1"></path>
    </defs>
    <g id="Page-1" stroke="none" stroke-width="1" fill="none" fill-rule="evenodd">
        <g id="by_Songkick_black">
            <g id="Group-3" transform="translate(96.000000, 0.000000)">
                <g id="Fill-1-Clipped">
                    <g>
                        <mask id="mask-2" fill="white">
                            <use xlink:href="#path-1"></use>
                        </mask>
                        <g id="path-1"></g>
                        <polygon id="Fill-1" fill="#000000" mask="url(#mask-2)" points="0 113.58 413.4 113.58 413.4 0.9 0 0.9"></polygon>
                    </g>
                </g>
            </g>
            <g id="by" transform="translate(0.000000, 15.000000)" fill="#000000" fill-rule="nonzero">
                <path d="M11.293,0.9058931 L15.892,0.9058931 L11.439,22.0028931 L11.585,22.0028931 C12.8990066,19.6668814 14.6631556,17.7932335 16.8775,16.3818931 C19.0918444,14.9705527 21.6589854,14.2648931 24.579,14.2648931 C27.0123455,14.2648931 29.1171578,14.6663891 30.8935,15.4693931 C32.6698422,16.2723971 34.1541607,17.3673862 35.3465,18.7543931 C36.5388393,20.1414 37.4269971,21.7960502 38.011,23.7183931 C38.5950029,25.640736 38.887,27.7212152 38.887,29.9598931 C38.887,32.8312408 38.4490044,35.7025454 37.573,38.5738931 C36.6969956,41.4452408 35.4195084,44.0245483 33.7405,46.3118931 C32.0614916,48.5992379 29.9810124,50.4607193 27.499,51.8963931 C25.0169876,53.3320669 22.1700161,54.0498931 18.958,54.0498931 C15.7459839,54.0498931 12.9963448,53.222568 10.709,51.5678931 C8.42165523,49.9132182 6.96166983,47.5285753 6.329,44.4138931 L6.183,44.4138931 L4.358,53.0278931 L0.27,53.0278931 L11.293,0.9058931 Z M18.374,50.2538931 C21.0020131,50.2538931 23.3014901,49.6212328 25.2725,48.3558931 C27.2435099,47.0905534 28.89816,45.472403 30.2365,43.5013931 C31.57484,41.5303832 32.5846633,39.3282386 33.266,36.8948931 C33.9473367,34.4615476 34.288,32.1012379 34.288,29.8138931 C34.288,26.3098756 33.4363418,23.4872371 31.733,21.3458931 C30.0296581,19.2045491 27.280019,18.1338931 23.484,18.1338931 C20.9533207,18.1338931 18.7268429,18.8152196 16.8045,20.1778931 C14.8821571,21.5405666 13.2761731,23.2438829 11.9865,25.2878931 C10.6968269,27.3319033 9.72350328,29.5583811 9.0665,31.9673931 C8.40949671,34.3764051 8.081,36.6515491 8.081,38.7928931 C8.081,40.3989011 8.28783126,41.8953862 8.7015,43.2823931 C9.11516873,44.6694 9.74782907,45.873888 10.5995,46.8958931 C11.4511709,47.9178982 12.5218269,48.7330567 13.8115,49.3413931 C15.1011731,49.9497295 16.6219912,50.2538931 18.374,50.2538931 Z M39.836,62.8098931 C41.1500066,62.9558938 42.4396603,63.0288931 43.705,63.0288931 C45.1163404,63.0288931 46.3086618,62.5908975 47.282,61.7148931 C48.2553382,60.8388887 49.0339971,59.9142313 49.618,58.9408931 L53.049,53.0278931 L46.114,15.3598931 L50.932,15.3598931 L56.334,47.3338931 L56.48,47.3338931 L73.854,15.3598931 L78.818,15.3598931 L52.027,61.8608931 C50.0803236,65.2189099 47.0386873,66.8978931 42.902,66.8978931 C42.2693302,66.8978931 41.6245033,66.8492269 40.9675,66.7518931 C40.3104967,66.6545593 39.6413367,66.58156 38.96,66.5328931 L39.836,62.8098931 Z" id="path-3"></path>
            </g>
        </g>
    </g>
</svg>